Description


Poster: http://cdn.piczend.com/image/cjlutiqnroaukpewvab5obh1f.jpeg
Release date: 2013
Genre: Action, Adventure, Romance, Sci-Fi, Thriller
Plot: When an unseen enemy threatens mankind by taking over their bodies and erasing their memories, Melanie will risk everything to protect the people she cares most about, proving that love can conquer all in a dangerous new world.
--------------------------------
Runtime: 2 h 5 min
Rating: 5.9/10
Votes: 1,799
Writer(s)/Director(s): Andrew Niccol, Stephenie Meyer/Andrew Niccol
Actors: Saoirse Ronan, Max Irons, Jake Abel, Diane Kruger
Trailer: http://www.imdb.com/video/imdb/vi1617274649/

Screenshots: 
http://cdn.piczend.com/image/xxy3dbsoogigpqnrfznoyelno.jpeg 
http://cdn.piczend.com/image/47wmjla79tbblqfiymxfzekos.jpeg 
http://cdn.piczend.com/image/pdwbqlvny7xkxujrvbtbhb0tz.jpeg 
http://cdn.piczend.com/image/6j4hxmx0johkkujirj6ctnyv6.jpeg

Mediainfo:
General
Complete name :	The Host (2013) CAM 340p [Zend]/The Host (2013) CAM 340p [Zend].mp4
Format :	MPEG-4
Format profile :	Base Media
Codec ID :	isom
File size :	1.32 GiB
Duration :	1h 51mn
Overall bit rate :	1 692 Kbps
Writing application :	Lavf53.21.1

Video
ID :	1
Format :	AVC
Format/Info :	Advanced Video Codec
Format profile :	Main@L3.0
Format settings, CABAC :	Yes
Format settings, ReFrames :	3 frames
Codec ID :	avc1
Codec ID/Info :	Advanced Video Coding
Duration :	1h 51mn
Bit rate :	1 500 Kbps
Width :	720 pixels
Height :	340 pixels
Display aspect ratio :	2.118
Frame rate mode :	Constant
Frame rate :	25.000 fps
Color space :	YUV
Chroma subsampling :	4:2:0
Bit depth :	8 bits
Scan type :	Progressive
Bits/(Pixel*Frame) :	0.245
Stream size :	1.17 GiB (88%)
Writing library :	x264 core 123 r2189 35cf912
Encoding settings :	cabac=1 / ref=3 / deblock=1:0:0 / analyse=0x1:0x111 / me=hex / subme=7 / psy=1 / psy_rd=1.00:0.00 / mixed_ref=0 / me_range=16 / chroma_me=1 / trellis=1 / 8x8dct=0 / cqm=0 / deadzone=21,11 / fast_pskip=1 / chroma_qp_offset=-2 / threads=6 / sliced_threads=0 / nr=0 / decimate=1 / interlaced=0 / bluray_compat=0 / constrained_intra=0 / bframes=3 / b_pyramid=0 / b_adapt=1 / b_bias=0 / direct=1 / weightb=0 / open_gop=1 / weightp=2 / keyint=250 / keyint_min=25 / scenecut=40 / intra_refresh=0 / rc_lookahead=40 / rc=abr / mbtree=1 / bitrate=1500 / ratetol=1.0 / qcomp=0.60 / qpmin=0 / qpmax=69 / qpstep=4 / ip_ratio=1.25 / aq=1:1.00

Audio
ID :	2
Format :	AC-3
Format/Info :	Audio Coding 3
Mode extension :	CM (complete main)
Format settings, Endianness :	Big
Codec ID :	ac-3
Duration :	1h 51mn
Bit rate mode :	Constant
Bit rate :	192 Kbps
Channel(s) :	2 channels
Channel positions :	Front: L R
Sampling rate :	48.0 KHz
Bit depth :	16 bits
Compression mode :	Lossy
Delay relative to video :	40ms
Stream size :	154 MiB (11%)
